<?xml version="1.0" standalone="no"?>
<!DOCTYPE svg PUBLIC "-//W3C//DTD SVG 20010904//EN"
 "http://www.w3.org/TR/2001/REC-SVG-20010904/DTD/svg10.dtd">
<svg version="1.0" xmlns="http://www.w3.org/2000/svg"
 width="260.000000pt" height="260.000000pt" viewBox="0 0 260.000000 260.000000"
 preserveAspectRatio="xMidYMid meet">
<metadata>
Created by potrace 1.11, written by Peter Selinger 2001-2013
</metadata>
<g transform="translate(0.000000,260.000000) scale(0.100000,-0.100000)"
fill="#000000" stroke="none">
<path d="M1117 2368 c-63 -128 -341 -687 -616 -1241 -276 -555 -501 -1011
-501 -1013 0 -2 106 -4 235 -4 l236 0 48 102 c27 57 89 186 138 288 49 102
102 213 118 248 16 35 35 63 44 63 46 4 758 4 769 1 6 -2 12 -10 12 -16 0 -10
-81 -13 -344 -13 -189 0 -354 -3 -367 -6 -26 -7 -31 -16 -144 -252 -37 -77
-82 -169 -100 -205 -18 -36 -34 -68 -34 -73 0 -4 -12 -29 -25 -56 -14 -27 -22
-51 -19 -55 4 -3 1 -6 -5 -6 -9 0 -28 -37 -25 -50 1 -3 -94 -4 -210 -2 -191 3
-213 1 -224 -14 -7 -10 -13 -21 -13 -26 0 -4 106 -8 235 -8 l236 0 43 93 c24
50 86 180 138 287 52 107 107 223 123 258 16 34 31 63 34 63 22 5 704 3 707
-2 2 -3 8 -39 14 -80 6 -41 13 -85 16 -99 2 -14 6 -45 9 -70 3 -25 7 -54 9
-65 2 -12 8 -48 12 -80 4 -33 9 -62 9 -65 1 -3 5 -32 9 -65 13 -105 -15 -95
262 -95 l246 0 -6 27 c-3 16 -8 51 -12 78 -4 28 -8 57 -9 65 -5 24 -25 162
-29 195 -7 56 -37 250 -41 270 -3 11 -7 40 -10 65 -2 25 -6 54 -9 65 -2 11 -7
45 -11 75 -4 30 -9 62 -10 70 -2 8 -6 35 -9 60 -3 25 -8 56 -11 69 -2 14 -9
59 -15 101 -6 42 -12 86 -14 97 -3 11 -7 44 -11 73 -4 29 -8 60 -10 69 -6 33
-17 105 -44 296 -19 126 -42 281 -56 375 -3 19 -12 82 -21 140 -8 58 -16 114
-18 125 -2 11 -7 45 -11 75 -4 30 -9 62 -11 70 -1 8 -3 18 -3 23 -1 4 -133 7
-295 7 l-293 0 -116 -232z m337 -197 c6 -62 4 -69 -61 -225 -37 -88 -80 -185
-95 -215 -15 -29 -25 -57 -23 -61 3 -4 -2 -10 -10 -14 -8 -3 -15 -11 -15 -17
0 -7 -30 -73 -67 -148 -37 -75 -66 -138 -64 -140 1 -2 -1 -7 -6 -10 -5 -3 -28
-45 -51 -93 -41 -86 -43 -88 -77 -88 -19 0 -35 4 -35 8 0 5 43 96 96 203 171
345 239 490 319 682 43 103 79 186 81 185 1 -2 5 -32 8 -67z m20 -237 c5 -57
8 -86 36 -279 10 -77 22 -158 25 -180 3 -23 7 -52 10 -65 3 -14 7 -45 10 -70
5 -44 10 -77 20 -145 l6 -35 -255 0 -254 0 72 148 c161 326 225 462 271 570
26 62 49 111 51 109 2 -2 6 -26 8 -53z"/>
<path d="M1866 2523 c-10 -11 -7 -52 13 -151 11 -54 22 -113 24 -132 3 -19 6
-35 7 -35 1 0 3 -16 4 -35 2 -19 6 -48 9 -65 3 -16 13 -79 22 -140 15 -104 22
-147 30 -205 2 -14 7 -47 11 -75 3 -27 9 -59 11 -70 2 -11 6 -36 8 -55 2 -19
6 -48 9 -65 3 -16 8 -52 11 -80 4 -27 8 -57 10 -65 2 -8 7 -37 10 -65 6 -48 9
-68 20 -125 3 -14 7 -43 10 -65 2 -22 7 -51 10 -65 5 -26 10 -61 19 -140 3
-25 8 -63 12 -85 3 -22 8 -53 10 -70 3 -16 7 -37 9 -45 2 -8 7 -40 10 -70 3
-30 9 -68 12 -85 3 -16 7 -39 9 -50 1 -11 5 -38 8 -60 3 -22 7 -56 10 -75 3
-19 7 -51 11 -70 3 -19 10 -64 15 -100 6 -36 11 -74 13 -85 4 -20 -1 -20 -220
-18 -128 2 -223 -1 -223 -6 0 -41 3 -41 256 -41 l244 0 -6 38 c-3 20 -7 48 -9
62 -3 14 -10 61 -16 105 -6 44 -13 89 -14 100 -2 11 -6 43 -10 70 -4 28 -9 59
-11 70 -2 11 -11 67 -19 125 -9 58 -18 116 -20 130 -2 14 -6 45 -10 70 -3 25
-8 56 -10 70 -2 14 -7 45 -10 70 -3 25 -10 70 -15 100 -5 30 -12 75 -15 100
-3 25 -10 70 -15 100 -5 30 -12 75 -15 100 -3 25 -10 72 -15 105 -5 33 -12 78
-15 100 -3 22 -12 81 -20 130 -8 50 -17 110 -20 135 -3 25 -8 56 -10 70 -6 39
-34 220 -40 263 -3 20 -7 54 -10 75 -6 40 -24 162 -30 201 -3 13 -7 43 -10 66
-5 30 -12 41 -25 42 -10 1 -21 -1 -24 -4z"/>
</g>
</svg>
